<svg version="1" xmlns="http://www.w3.org/2000/svg" width="933.333" height="933.333" viewBox="0 0 700.000000 700.000000"><path d="M2.6 119.8c.1.9 1.5 6.9 3 13.2 1.4 6.3 2.8 12.5 3 13.8.5 2.3 9.6 42.8 16.4 72.7 2.1 9.3 4.1 18.1 4.4 19.5.2 1.4 1.8 8.6 3.5 16 3.5 15 6 26.3 6.7 29.8.2 1.2 1.4 6.2 2.5 11 1.2 4.8 2.3 9.6 2.5 10.8.5 3 10.2 46.1 11.4 50.9.9 3.5 16.6 73.4 17.5 77.6.2.9 3.6 15.9 7.5 33.5 4 17.5 8.1 35.5 9 39.9 1 4.4 3.2 14.3 5 22 1.7 7.7 3.3 14.9 3.6 16 .2 1.1 2.1 9.5 4.1 18.7l3.7 16.6 243.3.1c133.8 0 243.5-.4 243.7-.8.5-.7.8-1.9 2.1-8.6.3-1.7 1.1-4.8 1.6-7 1.1-4.7 1.7-7.3 2.3-10 .5-2.2 4.5-20.1 5.1-22.5.8-3.5 7.6-33.7 7.9-35.5.3-1.1 2.1-9 4-17.5 2-8.5 3.8-16.4 4-17.5.6-3.1 5.5-24.8 8.2-36.3 1.3-5.6 2.6-11.3 2.8-12.5.3-1.7 3.1-14.2 7.1-31.7 1.7-7.5 4.5-20 4.9-22 .7-3.6 1.2-5.9 2.9-13.1 2.1-8.4 7.8-33.8 8.3-36.8.3-1.2 1.2-5.3 2-9 .9-3.6 1.7-7.3 1.9-8.1.2-.8 1.3-5.8 2.5-11s2.3-10.4 2.6-11.5c.2-1.1 3.5-16 7.4-33 3.9-17.1 7.5-33 8-35.5s1.1-5.4 1.4-6.5c7.3-31.4 17.1-76.7 16.7-77-.4-.2-156.9-.4-347.8-.4-325.2 0-347.1.1-346.7 1.7z"/></svg>